<svg xmlns="http://www.w3.org/2000/svg" viewBox="690 3714 99.086 37"><defs><style>.a,.b{fill:#fff;}.a{font-size:30px;font-family:Montserrat-Bold, Montserrat;font-weight:700;}</style></defs><text class="a" transform="translate(690 3743)"><tspan x="0" y="0">TOP</tspan></text><path class="b" d="M27.758,9.9H8.111l6.177-6.189a1.6,1.6,0,0,0,.466-1.14,1.622,1.622,0,0,0-.466-1.14L13.327.471A1.607,1.607,0,0,0,11.059.466L.466,11.053a1.628,1.628,0,0,0,0,2.28L11.053,23.921a1.583,1.583,0,0,0,1.134.466,1.608,1.608,0,0,0,1.134-.466l.961-.961a1.583,1.583,0,0,0,.466-1.134,1.567,1.567,0,0,0-.466-1.116L8.039,14.485h19.7a1.667,1.667,0,0,0,1.629-1.647V11.477a1.632,1.632,0,0,0-1.653-1.588" transform="translate(789.086 3716.936) rotate(90)"/></svg>