<?xml version="1.0" encoding="utf-8"?>
<!-- Generator: Adobe Illustrator 22.0.1, SVG Export Plug-In . SVG Version: 6.00 Build 0)  -->
<svg version="1.1" id="Layer_1" xmlns="http://www.w3.org/2000/svg" xmlns:xlink="http://www.w3.org/1999/xlink" x="0px" y="0px"
	 viewBox="0 0 377.3 127.1" style="enable-background:new 0 0 377.3 127.1;" xml:space="preserve">
<style type="text/css">
	.st0{fill:#F7C51B;}
	.st1{fill:#FFFFFF;}
</style>
<g>
	<g>
		<path class="st0" d="M179.7,63.8h-16.3V49.2h51.5v14.6h-16.3V105h-18.8V63.8z"/>
		<path class="st0" d="M254.9,95.3h-21.2l-3.7,9.7h-19.1l24.4-55.8h18.5l24.4,55.8h-19.4L254.9,95.3z M249.7,81.7l-5.4-14l-5.4,14
			H249.7z"/>
		<path class="st0" d="M313.2,105l-9.6-14.9l-9.4,14.9h-21.4l20.2-28.1l-19.4-27.6h21.1l9.5,14l9.2-14h20.2l-19.4,26.9l20.6,28.8
			H313.2z"/>
		<path class="st0" d="M337,49.2h18.8V105H337V49.2z"/>
	</g>
	<g>
		<path class="st1" d="M163.4,24.8h5.3v11.5h7.1v4.1h-12.3V24.8z"/>
		<path class="st1" d="M189.9,35.5h-8.5c0.4,0.9,1.2,1.4,2.5,1.4c1.1,0,1.7-0.3,2.5-0.9l2.6,2.7c-1.2,1.3-2.9,2-5.3,2
			c-4.5,0-7.4-2.7-7.4-6.3c0-3.7,3-6.3,6.9-6.3c3.6,0,6.7,2.2,6.7,6.3C190,34.7,189.9,35.1,189.9,35.5z M181.4,33.1h3.9
			c-0.2-1-0.9-1.6-2-1.6C182.3,31.4,181.6,32,181.4,33.1z"/>
		<path class="st1" d="M205.1,23.9v16.6h-4.8v-1c-0.7,0.8-1.8,1.2-3.3,1.2c-3.2,0-5.9-2.4-5.9-6.3c0-3.9,2.7-6.3,5.9-6.3
			c1.3,0,2.4,0.3,3.1,1v-5.2H205.1z M200.1,34.3c0-1.6-0.9-2.4-2-2.4c-1.1,0-2,0.8-2,2.4c0,1.6,0.9,2.4,2,2.4
			C199.3,36.7,200.1,35.9,200.1,34.3z"/>
		<path class="st1" d="M220.8,33.5v7h-5v-6.1c0-1.5-0.6-2.1-1.5-2.1c-1,0-1.9,0.6-1.9,2.5v5.7h-5V28.2h4.8v1.2c1-1,2.3-1.4,3.7-1.4
			C218.6,28,220.8,29.6,220.8,33.5z"/>
		<path class="st1" d="M222.5,24.7c0-1.5,1.2-2.6,3-2.6c1.9,0,3,1,3,2.5c0,1.5-1.2,2.7-3,2.7C223.6,27.2,222.5,26.1,222.5,24.7z
			 M223,28.2h5v12.2h-5V28.2z"/>
		<path class="st1" d="M229.6,34.3c0-3.7,3-6.3,7.2-6.3c3,0,5.2,1.4,6,3.6l-3.9,1.9c-0.5-1.1-1.3-1.6-2.1-1.6
			c-1.1,0-2.1,0.8-2.1,2.4c0,1.6,0.9,2.4,2.1,2.4c0.9,0,1.6-0.5,2.1-1.6l3.9,1.9c-0.8,2.3-3,3.6-6,3.6
			C232.6,40.7,229.6,38,229.6,34.3z"/>
		<path class="st1" d="M249.8,36.7l-0.8,0.9v2.9h-5V23.9h5v7.9l3.5-3.5h6l-5,5.3l5.4,6.9h-6.1L249.8,36.7z"/>
		<path class="st1" d="M272.3,35.5h-8.5c0.4,0.9,1.2,1.4,2.5,1.4c1.1,0,1.7-0.3,2.5-0.9l2.6,2.7c-1.2,1.3-2.9,2-5.3,2
			c-4.5,0-7.4-2.7-7.4-6.3c0-3.7,3-6.3,6.9-6.3c3.6,0,6.7,2.2,6.7,6.3C272.3,34.7,272.3,35.1,272.3,35.5z M266.5,26.9h-3.3l2.9-3.6
			h4.8L266.5,26.9z M263.7,33.1h3.9c-0.2-1-0.9-1.6-2-1.6C264.6,31.4,263.9,32,263.7,33.1z"/>
		<path class="st1" d="M287.5,36.5H286v3.9h-5.3V24.8h7.5c4.4,0,7.1,2.3,7.1,5.9c0,2.3-1.1,4-2.9,4.9l3.3,4.8h-5.6L287.5,36.5z
			 M288,28.9H286v3.7h1.9c1.5,0,2.1-0.7,2.1-1.8C290.1,29.6,289.4,28.9,288,28.9z"/>
		<path class="st1" d="M296.6,34.3c0-3.7,3-6.3,7.1-6.3c4.2,0,7.1,2.6,7.1,6.3c0,3.7-2.9,6.3-7.1,6.3
			C299.6,40.7,296.6,38,296.6,34.3z M305.7,34.3c0-1.6-0.9-2.4-2-2.4s-2,0.8-2,2.4c0,1.6,0.9,2.4,2,2.4S305.7,35.9,305.7,34.3z"/>
		<path class="st1" d="M325.6,28.2l-4.9,12.2h-5.2l-4.9-12.2h5.2l2.5,6.5l2.6-6.5H325.6z"/>
		<path class="st1" d="M339.9,33.5v7h-5v-6.1c0-1.5-0.6-2.1-1.5-2.1c-1,0-1.9,0.6-1.9,2.5v5.7h-5V28.2h4.8v1.2c1-1,2.3-1.4,3.7-1.4
			C337.7,28,339.9,29.6,339.9,33.5z"/>
		<path class="st1" d="M355.2,35.5h-8.5c0.4,0.9,1.2,1.4,2.5,1.4c1.1,0,1.7-0.3,2.5-0.9l2.6,2.7c-1.2,1.3-2.9,2-5.3,2
			c-4.5,0-7.4-2.7-7.4-6.3c0-3.7,3-6.3,6.9-6.3c3.6,0,6.7,2.2,6.7,6.3C355.3,34.7,355.3,35.1,355.2,35.5z M346.7,33.1h3.9
			c-0.2-1-0.9-1.6-2-1.6C347.6,31.4,346.9,32,346.7,33.1z"/>
	</g>
	<g>
		<path class="st0" d="M112.2,64.7H93.5H64.4l-2.6,0h-0.1c-7.4,0-14.3,2.2-20.1,6V24.4H21.5V105h20c0-0.7,0-1.3,0.1-1.9
			c0.5-5.5,3.3-10.4,7.3-13.7c3.5-2.8,7.9-4.5,12.7-4.5L115.8,64C114.7,64.5,113.5,64.7,112.2,64.7z"/>
		<path class="st1" d="M138,87.6c-0.3-0.5-0.6-1-0.9-1.6c0,0,0,0,0,0c0,0,0,0,0-0.1c0-0.1-0.1-0.1-0.1-0.2c0,0,0-0.1,0-0.1l-0.1-0.2
			c-0.1-0.1-0.2-0.3-0.3-0.5c-0.1-0.1-0.1-0.2-0.2-0.2c-1-1.6-3.1-4.3-5.8-6.3c4.6-3.5,8.1-8.3,10.1-13.9c1.1-3.1,1.7-6.5,1.7-10.1
			c0-3.5-0.6-6.9-1.7-10.1c-3-8.6-9.8-15.4-18.4-18.4c-3.1-1.1-6.5-1.7-10.1-1.7H61.8v33.2L82,57.5V44.6h30.2c5.3,0,9.7,4.2,10,9.4
			c0,0.2,0,0.4,0,0.7c0,0.2,0,0.4,0,0.7c-0.3,4-2.8,7.3-6.4,8.7L61.8,84.9l0,0h0V105H82V84.9h11.5h10.6c5.5,0.5,10.4,3.3,13.7,7.3
			c2.8,3.5,4.5,7.9,4.5,12.7v0h20.1v-0.1c0-6.1-1.5-11.9-4.2-17C138.2,87.9,138.2,87.8,138,87.6z"/>
	</g>
</g>
</svg>
